<?xml version="1.0" standalone="no"?>
<!DOCTYPE svg PUBLIC "-//W3C//DTD SVG 20010904//EN"
 "http://www.w3.org/TR/2001/REC-SVG-20010904/DTD/svg10.dtd">
<svg version="1.0" xmlns="http://www.w3.org/2000/svg"
 width="1169.000000pt" height="1280.000000pt" viewBox="0 0 1169.000000 1280.000000"
 preserveAspectRatio="xMidYMid meet">
<metadata>
Created by potrace 1.15, written by Peter Selinger 2001-2017
</metadata>
<g transform="translate(0.000000,1280.000000) scale(0.100000,-0.100000)"
fill="green" stroke="none">
<path d="M5770 12794 c-131 -9 -324 -40 -620 -99 -86 -17 -275 -108 -382 -183
-127 -89 -309 -244 -340 -290 -75 -108 -87 -188 -59 -378 12 -78 21 -146 21
-151 0 -15 -45 -32 -122 -48 -83 -18 -117 -35 -172 -84 -22 -21 -86 -64 -140
-97 -105 -63 -111 -66 -202 -130 -63 -44 -192 -120 -344 -204 -52 -29 -115
-69 -140 -90 -25 -20 -108 -74 -185 -120 -166 -98 -418 -263 -529 -345 -242
-178 -569 -505 -753 -751 -150 -201 -265 -388 -289 -470 -9 -33 -27 -79 -39
-104 -13 -25 -46 -110 -74 -190 -28 -80 -56 -154 -61 -165 -15 -34 -148 -494
-170 -590 -12 -49 -30 -135 -41 -190 -11 -55 -29 -124 -39 -152 -15 -40 -22
-98 -29 -241 -6 -103 -12 -195 -15 -203 -3 -8 -26 -160 -51 -339 -26 -187 -52
-336 -60 -352 -8 -14 -15 -46 -15 -70 0 -23 -9 -75 -20 -113 -11 -38 -20 -86
-20 -105 0 -19 -9 -67 -20 -105 -36 -124 -99 -378 -111 -450 -6 -38 -22 -95
-34 -125 -44 -104 -104 -356 -146 -605 -5 -33 -16 -74 -24 -91 -9 -19 -12 -44
-9 -63 5 -21 1 -39 -11 -58 -14 -20 -20 -59 -26 -157 -4 -72 -15 -176 -24
-231 -47 -289 -67 -489 -74 -730 -7 -202 -11 -259 -26 -295 -13 -34 -20 -95
-26 -240 -6 -107 -14 -213 -20 -235 -5 -22 -21 -116 -35 -210 -36 -249 -69
-464 -108 -690 -19 -110 -40 -258 -46 -330 -12 -128 -8 -312 9 -387 8 -34 6
-38 -24 -60 -49 -35 -86 -84 -95 -126 -29 -132 -36 -768 -10 -887 6 -27 14
-86 18 -130 l7 -80 65 -33 c78 -39 159 -55 425 -82 110 -11 265 -27 345 -35
377 -39 812 -25 902 28 87 51 94 65 107 222 6 77 23 208 37 290 24 140 25 164
20 375 -5 230 0 319 27 412 8 29 20 100 27 156 12 108 55 316 90 437 11 38 20
90 20 116 0 25 9 79 19 120 43 161 72 330 81 464 5 77 16 160 25 184 8 24 15
71 15 104 0 35 12 106 30 171 16 61 43 170 59 241 16 72 36 144 45 160 8 17
24 84 35 150 34 193 37 197 44 45 4 -74 9 -281 12 -460 3 -179 13 -386 21
-460 8 -74 21 -225 28 -335 8 -110 22 -233 31 -273 18 -80 17 -133 -8 -287
-43 -274 -55 -415 -46 -560 9 -140 28 -285 38 -285 3 0 23 -16 45 -36 36 -33
46 -36 145 -49 58 -8 165 -26 238 -39 185 -35 560 -74 1028 -106 205 -15 1006
-23 1188 -13 84 4 151 4 154 -1 3 -4 25 -17 49 -28 45 -20 35 -19 574 -49 255
-14 696 -7 950 16 96 8 279 24 405 35 127 11 246 23 265 25 19 3 231 9 470 14
446 10 560 19 764 61 56 12 125 26 154 31 65 13 81 35 92 127 5 37 14 83 20
102 7 21 15 176 20 395 4 198 11 371 15 385 4 14 18 60 31 103 13 44 31 122
39 175 8 54 23 141 34 194 12 54 30 160 40 235 38 257 90 957 77 1032 -7 43 4
341 13 341 9 0 110 -429 126 -535 8 -49 25 -124 39 -165 21 -66 43 -157 92
-375 7 -33 13 -77 14 -98 0 -21 7 -48 15 -60 8 -13 19 -56 25 -97 6 -41 15
-92 20 -112 6 -20 15 -96 20 -170 6 -77 19 -160 31 -198 12 -40 18 -78 14
-100 -3 -19 2 -60 10 -90 8 -30 15 -95 15 -145 0 -49 7 -135 15 -190 26 -181
30 -331 10 -409 -12 -48 -15 -86 -11 -125 4 -38 1 -79 -9 -122 -11 -45 -18
-164 -26 -409 -13 -461 -7 -526 56 -574 28 -22 44 -26 97 -26 35 0 150 -11
257 -25 132 -17 237 -25 325 -24 72 1 178 -4 235 -11 63 -7 140 -10 190 -6 48
4 194 11 326 15 139 5 254 14 273 21 22 8 39 25 53 51 10 21 24 39 29 39 13 0
27 62 34 155 3 44 11 96 17 115 16 53 33 337 30 498 -1 82 3 172 9 211 11 59
10 72 -4 103 -10 20 -28 46 -41 58 -18 17 -22 27 -15 40 21 39 41 113 35 128
-21 54 -25 196 -30 980 -3 477 -8 892 -11 922 -3 30 -12 67 -20 83 -12 23 -14
99 -8 485 6 414 4 483 -15 732 -12 151 -30 338 -41 415 -10 77 -26 205 -35
285 -8 80 -24 188 -35 240 -21 102 -56 350 -65 465 -4 39 -13 86 -21 105 -7
19 -27 123 -44 230 -16 107 -44 254 -60 325 -67 284 -89 383 -101 450 -6 39
-17 81 -25 95 -7 14 -18 55 -24 90 -6 36 -26 130 -45 210 -18 80 -37 168 -40
195 -4 28 -13 57 -20 65 -16 20 -30 64 -55 180 -27 128 -246 878 -305 1047
-65 187 -136 341 -203 441 -21 31 -52 80 -67 107 -16 28 -44 70 -62 95 -18 25
-56 79 -83 121 -105 162 -363 437 -581 620 -282 238 -437 338 -764 492 -244
115 -736 371 -1084 564 -228 127 -555 293 -578 293 -17 0 -16 15 3 52 51 98
77 234 64 328 -18 125 -115 262 -279 392 -91 73 -139 97 -266 136 -254 78
-467 112 -735 116 -107 2 -220 2 -250 0z"/>
</g>
</svg>
