<?xml version="1.0" standalone="no"?>
<!DOCTYPE svg PUBLIC "-//W3C//DTD SVG 20010904//EN"
 "http://www.w3.org/TR/2001/REC-SVG-20010904/DTD/svg10.dtd">
<svg version="1.0" xmlns="http://www.w3.org/2000/svg"
 width="1098.000000pt" height="1280.000000pt" viewBox="0 0 1098.000000 1280.000000"
 preserveAspectRatio="xMidYMid meet">
<metadata>
Created by potrace 1.15, written by Peter Selinger 2001-2017
</metadata>
<g transform="translate(0.000000,1280.000000) scale(0.100000,-0.100000)"
fill="orange" stroke="none">
<path d="M5750 12766 c-52 -19 -138 -51 -190 -71 -139 -54 -189 -53 -350 12
-237 95 -312 98 -445 16 -334 -204 -607 -554 -759 -974 l-34 -94 -133 -32
c-297 -72 -449 -106 -574 -128 -335 -61 -720 -175 -900 -267 -142 -73 -260
-180 -340 -308 -28 -47 -128 -200 -220 -340 -864 -1312 -1595 -2442 -1700
-2628 -115 -204 -126 -262 -74 -372 47 -99 125 -187 286 -321 81 -67 173 -145
203 -172 84 -77 351 -288 710 -562 592 -452 874 -686 1140 -944 112 -108 123
-122 106 -132 -10 -6 -25 -20 -34 -30 -9 -10 -27 -19 -40 -19 -24 0 -24 -1 -8
-25 9 -13 16 -35 16 -48 0 -13 20 -50 45 -83 83 -109 98 -134 98 -162 -1 -73
-237 -1505 -358 -2167 -124 -681 -408 -2120 -441 -2229 -29 -103 -12 -191 44
-220 81 -42 687 -230 970 -300 822 -206 1523 -218 1888 -33 126 64 176 127
324 409 154 295 340 795 470 1263 12 44 25 84 28 89 8 13 48 -110 203 -609
146 -473 208 -660 281 -853 47 -123 54 -136 105 -182 169 -155 393 -222 743
-222 332 0 733 67 1201 202 315 91 765 254 805 291 34 32 37 63 14 152 -50
202 -352 1731 -474 2397 -212 1165 -326 1955 -430 2985 -30 297 -78 763 -105
1035 -56 552 -84 874 -106 1215 -18 286 -35 648 -31 653 5 4 413 -596 830
-1218 312 -466 326 -489 360 -590 136 -405 206 -1000 206 -1745 0 -176 -3
-330 -6 -342 -3 -12 -16 -25 -28 -29 -11 -4 -48 -26 -82 -50 -50 -35 -65 -53
-87 -102 -52 -116 -60 -390 -17 -603 36 -175 64 -213 214 -293 108 -58 207
-94 339 -123 110 -24 428 -24 567 0 336 58 608 184 838 388 82 73 109 117 117
188 3 31 15 135 27 231 35 292 14 436 -73 514 -22 20 -72 53 -112 72 l-73 36
4 339 c6 449 -16 768 -89 1289 -42 303 -165 1030 -190 1120 -58 216 -143 397
-389 825 -525 918 -977 1589 -1403 2082 -149 173 -384 302 -737 403 -158 45
-842 216 -1044 260 -77 16 -141 31 -142 33 -2 2 -15 57 -29 123 -82 392 -215
661 -420 852 -132 123 -224 170 -350 178 -62 5 -81 1 -165 -30z m-2939 -4174
c-20 -515 -40 -984 -47 -1059 l-6 -73 -71 57 c-108 84 -276 208 -424 312
l-132 92 62 77 c91 111 167 220 312 447 192 300 308 470 313 456 2 -7 -1 -146
-7 -309z m-285 -3177 c18 -13 16 -14 -26 -14 -42 0 -44 1 -26 14 11 8 23 15
26 15 3 0 15 -7 26 -15z m94 -310 c13 -14 21 -25 18 -25 -2 0 -15 11 -28 25
-13 14 -21 25 -18 25 2 0 15 -11 28 -25z m6501 -252 c17 -27 23 -40 13 -31
-20 17 -59 78 -50 78 2 0 19 -21 37 -47z"/>
</g>
</svg>
