<?xml version="1.0" standalone="no"?>
<!DOCTYPE svg PUBLIC "-//W3C//DTD SVG 20010904//EN"
 "http://www.w3.org/TR/2001/REC-SVG-20010904/DTD/svg10.dtd">
<svg version="1.0" xmlns="http://www.w3.org/2000/svg"
 width="947.000000pt" height="1280.000000pt" viewBox="0 0 947.000000 1280.000000"
 preserveAspectRatio="xMidYMid meet">
<metadata>
Created by potrace 1.15, written by Peter Selinger 2001-2017
</metadata>
<g transform="translate(0.000000,1280.000000) scale(0.100000,-0.100000)"
fill="blue" stroke="none">
<path d="M4348 12625 l-3 -55 -280 -5 c-154 -3 -300 -7 -325 -10 -63 -7 -275
-23 -467 -35 -89 -6 -193 -17 -230 -24 -37 -8 -128 -19 -201 -25 -74 -6 -137
-13 -142 -16 -5 -3 -145 -8 -312 -11 -318 -6 -329 -7 -366 -53 -22 -28 -50
-95 -57 -136 -15 -85 -33 -146 -89 -290 -54 -143 -65 -304 -24 -367 14 -21 14
-31 -3 -103 -11 -44 -26 -104 -35 -133 -8 -29 -19 -90 -24 -136 -12 -121 -18
-148 -60 -291 -49 -165 -66 -254 -81 -434 -11 -141 -12 -144 -52 -215 -41 -69
-42 -74 -48 -191 -11 -180 -25 -284 -55 -392 -22 -82 -25 -111 -21 -178 5 -68
3 -83 -13 -102 -13 -16 -19 -43 -21 -93 -6 -161 -3 -298 7 -343 12 -47 10 -84
-17 -427 -6 -80 -12 -282 -14 -450 -1 -168 -4 -314 -8 -325 -20 -63 -34 -208
-47 -490 -5 -104 -10 -197 -11 -205 -1 -8 -1 -76 0 -150 1 -74 -3 -202 -8
-285 -21 -310 -24 -843 -7 -1110 19 -295 23 -336 36 -435 8 -64 22 -497 20
-612 0 -20 4 -65 9 -100 6 -34 15 -202 21 -371 5 -169 14 -347 20 -395 6 -48
12 -211 14 -362 3 -172 11 -335 22 -435 9 -88 16 -198 15 -245 -5 -263 -4
-313 7 -395 8 -49 15 -138 17 -196 2 -58 9 -127 15 -153 6 -26 13 -100 16
-164 3 -64 9 -131 14 -149 6 -22 4 -38 -7 -52 -12 -18 -13 -36 -4 -109 17
-137 14 -216 -7 -235 -10 -10 -24 -17 -31 -17 -9 0 -11 -6 -6 -17 14 -31 2
-97 -23 -125 -16 -19 -86 -58 -105 -58 -7 0 -24 -6 -39 -14 -14 -8 -46 -17
-70 -21 -64 -9 -138 -28 -138 -34 0 -3 9 -17 20 -31 11 -14 20 -30 20 -37 0
-26 12 -25 139 11 52 14 58 14 99 -4 25 -11 50 -20 57 -20 27 0 33 -24 20 -87
-12 -56 -72 -190 -114 -252 -46 -68 -81 -134 -75 -143 8 -12 67 -38 87 -38 18
0 64 72 136 212 32 62 63 114 69 116 5 1 20 -13 32 -33 24 -39 28 -40 65 -23
23 10 29 7 97 -61 84 -83 192 -142 343 -187 162 -48 222 -58 507 -89 268 -29
678 -12 863 36 279 73 464 154 524 231 38 48 42 67 57 278 3 52 15 124 26 159
16 51 21 100 23 222 1 86 6 163 10 170 5 7 12 99 17 203 4 105 12 218 17 251
5 33 10 179 10 325 1 323 13 461 57 687 17 85 18 174 3 262 -7 43 -7 79 0 111
6 26 11 111 12 191 1 79 8 200 15 269 8 69 19 202 24 295 6 94 14 213 20 265
5 52 14 219 20 370 15 401 22 467 81 740 57 265 54 244 99 645 32 288 36 319
74 520 27 147 39 215 62 365 30 197 83 430 105 456 15 18 63 18 97 0 43 -22
70 -58 81 -106 27 -120 44 -185 51 -206 5 -12 16 -66 25 -120 27 -171 47 -276
71 -374 47 -193 71 -354 94 -615 13 -143 31 -286 60 -470 29 -186 53 -431 65
-660 3 -60 10 -157 16 -215 31 -348 45 -559 60 -940 5 -140 14 -302 19 -360 9
-103 23 -274 40 -495 8 -99 19 -246 50 -646 5 -70 14 -173 19 -230 12 -118 17
-209 27 -461 6 -145 4 -181 -7 -194 -18 -22 -17 -147 4 -404 23 -291 35 -317
176 -386 109 -53 194 -80 381 -120 180 -39 678 -60 1036 -44 225 10 337 28
504 80 110 34 293 120 331 156 l26 24 18 -20 c24 -27 34 -25 81 10 49 37 60
37 79 -1 22 -42 28 -31 14 24 -11 39 -10 48 4 71 10 14 27 26 38 26 23 0 129
79 129 96 0 6 25 30 55 53 54 41 55 42 55 93 0 32 -6 58 -15 68 -14 16 -13 22
11 69 14 29 24 54 22 55 -1 2 -22 6 -45 10 -40 6 -43 5 -59 -26 -24 -47 -91
-136 -142 -189 l-44 -47 -43 29 c-69 47 -97 86 -89 123 10 49 23 76 34 76 16
0 69 80 76 115 7 42 -9 103 -42 151 -25 37 -26 43 -20 119 4 44 9 121 10 170
2 50 9 118 15 153 8 40 13 240 16 555 2 282 8 526 14 572 6 44 13 292 16 550
3 259 7 490 10 515 3 25 13 144 21 265 9 121 20 261 24 310 12 122 18 212 25
390 3 83 10 179 16 215 7 42 11 254 11 605 -1 321 3 568 9 610 14 92 13 603
-1 639 -5 15 -10 94 -10 175 0 82 -4 171 -9 198 -6 27 -13 130 -16 229 -4 98
-8 190 -11 204 -2 14 -9 54 -16 90 -8 43 -12 159 -10 343 2 279 -3 364 -32
532 -8 50 -17 142 -21 205 -3 63 -8 129 -11 145 -2 17 -6 73 -8 125 -2 52 -8
106 -14 120 -5 14 -15 66 -22 115 -6 50 -16 113 -22 140 -22 114 -28 251 -18
397 11 150 9 167 -25 208 -7 8 -15 40 -18 70 -14 144 -31 232 -68 339 -23 67
-44 152 -49 201 -18 154 -40 238 -100 387 -38 94 -70 209 -73 263 -2 19 6 28
36 43 70 33 100 156 77 312 -13 93 -19 115 -72 288 -47 154 -72 204 -163 325
-61 82 -72 93 -95 89 -14 -3 -63 1 -110 8 -353 57 -459 69 -710 81 -115 5
-152 11 -182 26 -35 18 -55 20 -226 17 -352 -6 -936 1 -1025 13 -70 8 -112 8
-191 -2 -132 -17 -281 -15 -347 5 -29 8 -83 15 -119 15 -65 0 -200 36 -224 60
-19 19 -25 10 -28 -45z m3330 -571 c81 -198 92 -237 92 -330 0 -80 -10 -108
-32 -86 -5 5 -14 42 -19 81 -6 40 -23 109 -40 154 -16 45 -29 92 -29 105 0 13
-9 42 -19 66 -11 23 -23 66 -27 95 -12 89 15 58 74 -85z m72 -468 c0 -27 -24
-51 -40 -41 -16 10 -12 53 7 64 23 12 33 5 33 -23z"/>
</g>
</svg>
